<?xml version="1.0" encoding="UTF-8" standalone="no"?>
<!-- Created with Inkscape (http://www.inkscape.org/) -->

<svg
   xmlns:dc="http://purl.org/dc/elements/1.1/"
   xmlns:cc="http://creativecommons.org/ns#"
   xmlns:rdf="http://www.w3.org/1999/02/22-rdf-syntax-ns#"
   xmlns:svg="http://www.w3.org/2000/svg"
   xmlns="http://www.w3.org/2000/svg"
   xmlns:sodipodi="http://sodipodi.sourceforge.net/DTD/sodipodi-0.dtd"
   xmlns:inkscape="http://www.inkscape.org/namespaces/inkscape"
   width="732.88428"
   height="117.15224"
   viewBox="0 0 193.90896 30.996538"
   version="1.1"
   id="svg8"
   inkscape:version="0.92.3 (2405546, 2018-03-11)"
   sodipodi:docname="gradient_ver.svg">
  <defs
     id="defs2" />
  <sodipodi:namedview
     id="base"
     pagecolor="#ffffff"
     bordercolor="#666666"
     borderopacity="1.0"
     inkscape:pageopacity="0.0"
     inkscape:pageshadow="2"
     inkscape:zoom="0.98994949"
     inkscape:cx="217.57222"
     inkscape:cy="-136.76555"
     inkscape:document-units="px"
     inkscape:current-layer="layer1"
     showgrid="false"
     showborder="true"
     units="px"
     inkscape:window-width="1920"
     inkscape:window-height="1027"
     inkscape:window-x="-8"
     inkscape:window-y="-8"
     inkscape:window-maximized="1"
     inkscape:showpageshadow="false"
     fit-margin-top="0"
     fit-margin-left="0"
     fit-margin-right="0"
     fit-margin-bottom="0" />
  <metadata
     id="metadata5">
    <rdf:RDF>
      <cc:Work
         rdf:about="">
        <dc:format>image/svg+xml</dc:format>
        <dc:type
           rdf:resource="http://purl.org/dc/dcmitype/StillImage" />
        <dc:title></dc:title>
      </cc:Work>
    </rdf:RDF>
  </metadata>
  <g
     inkscape:label="Layer 1"
     inkscape:groupmode="layer"
     id="layer1"
     transform="translate(-0.36227816,-0.40132781)">
    <path
       inkscape:connector-curvature="0"
       style="font-style:normal;font-variant:normal;font-weight:900;font-stretch:normal;font-size:85.33333588px;line-height:1.25;font-family:Raleway;-inkscape-font-specification:'Raleway Heavy';letter-spacing:3.53055573px;word-spacing:0px;fill:#4ac4f3;fill-opacity:1;stroke:none;stroke-width:0.14505063;stroke-linecap:butt;stroke-linejoin:miter;stroke-miterlimit:4;stroke-dasharray:none;stroke-dashoffset:0;stroke-opacity:1"
       d="m 1.312913,26.968497 -0.2209007,0.452721 c 0.8743989,0.522171 1.8172437,0.989602 2.8282831,1.401842 1.0384011,0.412247 2.103745,0.769613 3.1967853,1.071921 1.120319,0.302308 2.241055,0.535584 3.3614583,0.700481 1.120318,0.164898 2.213191,0.247334 3.27887,0.247334 1.33896,0 2.664281,-0.15084 3.975963,-0.453156 1.338877,-0.329795 2.527557,-0.852033 3.565958,-1.56658 0.74872,-0.501981 1.38699,-1.122001 1.919837,-1.854563 z"
       id="path1042"
       inkscape:export-xdpi="96"
       inkscape:export-ydpi="96" />
    <path
       inkscape:connector-curvature="0"
       style="font-style:normal;font-variant:normal;font-weight:900;font-stretch:normal;font-size:85.33333588px;line-height:1.25;font-family:Raleway;-inkscape-font-specification:'Raleway Heavy';letter-spacing:3.53055573px;word-spacing:0px;fill:#4ab9f3;fill-opacity:1;stroke:none;stroke-width:0.14505063;stroke-linecap:butt;stroke-linejoin:miter;stroke-miterlimit:4;stroke-dasharray:none;stroke-dashoffset:0;stroke-opacity:1"
       d="m 36.538397,22.540717 v 8.302079 h 8.157674 v -8.302079 z"
       id="path1044"
       inkscape:export-xdpi="96"
       inkscape:export-ydpi="96" />
    <path
       inkscape:connector-curvature="0"
       style="font-style:normal;font-variant:normal;font-weight:900;font-stretch:normal;font-size:85.33333588px;line-height:1.25;font-family:Raleway;-inkscape-font-specification:'Raleway Heavy';letter-spacing:3.53055573px;word-spacing:0px;fill:#4ab1f3;fill-opacity:1;stroke:none;stroke-width:0.14505063;stroke-linecap:butt;stroke-linejoin:miter;stroke-miterlimit:4;stroke-dasharray:none;stroke-dashoffset:0;stroke-opacity:1"
       d="m 57.89163,18.112936 v 12.72986 H 79.059365 V 23.687008 H 66.049312 v -4.714894 h 10.793096 v -0.859178 z"
       id="path1046"
       inkscape:export-xdpi="96"
       inkscape:export-ydpi="96" />
    <path
       inkscape:connector-curvature="0"
       style="font-style:normal;font-variant:normal;font-weight:900;font-stretch:normal;font-size:85.33333588px;line-height:1.25;font-family:Raleway;-inkscape-font-specification:'Raleway Heavy';letter-spacing:3.53055573px;word-spacing:0px;fill:#4aa8f3;fill-opacity:1;stroke:none;stroke-width:0.14505063;stroke-linecap:butt;stroke-linejoin:miter;stroke-miterlimit:4;stroke-dasharray:none;stroke-dashoffset:0;stroke-opacity:1"
       d="m 84.624808,13.685164 v 17.157632 h 8.157598 V 16.151998 L 104.5796,30.842796 h 6.48428 V 13.685164 h -8.15769 v 2.466834 l -1.93539,-2.466834 z"
       id="path1048"
       inkscape:export-xdpi="96"
       inkscape:export-ydpi="96" />
    <path
       inkscape:connector-curvature="0"
       style="font-style:normal;font-variant:normal;font-weight:900;font-stretch:normal;font-size:85.33333588px;line-height:1.25;font-family:Raleway;-inkscape-font-specification:'Raleway Heavy';letter-spacing:3.53055573px;word-spacing:0px;fill:#4aa0f3;fill-opacity:1;stroke:none;stroke-width:0.14505063;stroke-linecap:butt;stroke-linejoin:miter;stroke-miterlimit:4;stroke-dasharray:none;stroke-dashoffset:0;stroke-opacity:1"
       d="m 115.48256,9.2573828 c -0.0669,0.50885 -0.10292,1.0383762 -0.10292,1.5920922 0,1.071829 0.13672,2.019845 0.40992,2.844332 0.30064,0.824487 0.7514,1.566421 1.3526,2.225994 0.60112,0.632111 1.36649,1.209164 2.29561,1.731335 0.92904,0.494684 2.03564,0.962115 3.31996,1.401842 0.8744,0.302299 1.69432,0.563213 2.45944,0.783076 0.79248,0.219863 1.48908,0.439978 2.09028,0.659841 0.60111,0.219863 1.06568,0.480769 1.3936,0.783076 0.35519,0.274829 0.53267,0.618598 0.53267,1.030846 0,0.384752 -0.17748,0.700473 -0.53267,0.947815 -0.32792,0.219863 -0.92913,0.32992 -1.80352,0.32992 -1.14768,0 -2.28181,-0.164864 -3.40213,-0.494659 -1.09304,-0.329795 -2.07672,-0.700757 -2.95112,-1.113005 -1.0384,-0.467197 -2.0358,-1.00304 -2.9922,-1.607664 l -3.44279,7.048994 c 0.8744,0.522171 1.81683,0.989602 2.82787,1.401842 1.0384,0.412247 2.10416,0.769613 3.1972,1.071921 1.12032,0.302308 2.24064,0.535584 3.36104,0.700481 1.12032,0.164898 2.21361,0.247334 3.27929,0.247334 1.33896,0 2.66428,-0.15084 3.97588,-0.453156 1.33896,-0.329795 2.52764,-0.852033 3.56604,-1.56658 1.06568,-0.714547 1.91272,-1.662572 2.5412,-2.844332 0.65584,-1.20924 0.98368,-2.693526 0.98368,-4.452423 0,-1.374137 -0.20492,-2.542275 -0.61484,-3.504173 -0.40984,-0.961897 -0.99732,-1.772662 -1.76244,-2.432251 -0.76512,-0.68706 -1.69424,-1.277719 -2.78728,-1.772411 -1.06568,-0.494684 -2.26817,-0.948083 -3.60705,-1.360331 -0.84712,-0.27482 -1.61207,-0.508532 -2.29519,-0.700916 -0.65576,-0.192376 -1.21621,-0.38487 -1.68069,-0.577254 -0.46456,-0.219863 -0.8195,-0.453148 -1.06542,-0.70049 -0.24601,-0.247342 -0.36934,-0.5634982 -0.36934,-0.9482502 0,-0.0967 0.01,-0.186519 0.0234,-0.272846 z m 15.22868,0 c 0.15237,0.06267 0.30433,0.125462 0.44925,0.190251 0.8744,0.38476 1.72144,0.8245622 2.5412,1.3192542 l 0.78311,-1.5095052 z"
       id="path1050"
       inkscape:export-xdpi="96"
       inkscape:export-ydpi="96" />
    <path
       inkscape:connector-curvature="0"
       style="font-style:normal;font-variant:normal;font-weight:900;font-stretch:normal;font-size:85.33333588px;line-height:1.25;font-family:Raleway;-inkscape-font-specification:'Raleway Heavy';letter-spacing:3.53055573px;word-spacing:0px;fill:#4a98f3;fill-opacity:1;stroke:none;stroke-width:0.14505063;stroke-linecap:butt;stroke-linejoin:miter;stroke-miterlimit:4;stroke-dasharray:none;stroke-dashoffset:0;stroke-opacity:1"
       d="M 148.76269,4.8295938 139.767,30.842796 h 8.32713 l 1.75733,-5.850809 h 7.90858 l 1.79917,5.850809 h 8.28529 L 158.88513,4.8295938 Z m 5.06381,5.4287962 2.63634,9.261148 h -5.39768 z"
       id="path1052"
       inkscape:export-xdpi="96"
       inkscape:export-ydpi="96" />
    <path
       inkscape:connector-curvature="0"
       id="path1054"
       style="font-style:normal;font-variant:normal;font-weight:900;font-stretch:normal;font-size:85.33333588px;line-height:1.25;font-family:Raleway;-inkscape-font-specification:'Raleway Heavy';letter-spacing:3.53055573px;word-spacing:0px;fill:#4a91f3;fill-opacity:1;stroke:none;stroke-width:0.14505063;stroke-linecap:butt;stroke-linejoin:miter;stroke-miterlimit:4;stroke-dasharray:none;stroke-dashoffset:0;stroke-opacity:1"
       d="M 172.08496,30.842997 V 0.95548781 h 8.1596 V 23.68684 h 13.4737 v 7.156157 z"
       inkscape:export-xdpi="96"
       inkscape:export-ydpi="96" />
    <path
       inkscape:connector-curvature="0"
       id="path1056"
       d="m 13.223733,0.40132781 c -1.504301,0 -2.944591,0.230423 -4.3144273,0.68965399 -1.343395,0.432162 -2.5535795,1.082765 -3.6166641,1.949684 -1.0744648,0.876189 -1.9340534,1.977028 -2.5674696,3.279983 v 0.0033 0.005 c -0.612665,1.320501 -0.913475,2.833621 -0.913475,4.5203912 0,1.118854 0.142163,2.12602 0.4379525,3.018492 v 0.0084 0.0084 c 0.324992,0.891419 0.8150738,1.698418 1.462631,2.408915 l 0.00837,0.0033 v 0.005 c 0.6468879,0.68014 1.4574432,1.288094 2.4253062,1.83202 l 0.00837,0.0033 0.00837,0.0033 c 0.962007,0.512231 2.094123,0.989594 3.399279,1.436525 0.8823483,0.305052 1.7113113,0.569614 2.4873093,0.792615 v 0 0 c 0.781437,0.216801 1.464388,0.433811 2.047767,0.647173 0.554762,0.202902 0.956233,0.436664 1.209348,0.670049 l 0.01841,0.01632 0.01757,0.01473 c 0.249267,0.19287 0.318717,0.339969 0.318717,0.593236 0,0.211713 -0.05606,0.320239 -0.292527,0.487019 -0.140991,0.09315 -0.665128,0.236966 -1.490494,0.236966 -1.09463,0 -2.17445,-0.156965 -3.245652,-0.472309 C 9.5628957,22.239924 8.6053997,21.877388 7.7610397,21.479273 l -0.0084,-0.0017 -0.0084,-0.0017 C 6.7293247,21.019446 5.7549347,20.49623 4.8205415,19.905546 l -0.5212924,-0.330121 -3.93697094,8.061849 0.4363627,0.259843 c 0.90000344,0.53745 1.86736484,1.017776 2.90241894,1.439796 v 0 0.0017 c 1.0571441,0.419703 2.1419005,0.782524 3.2538519,1.090062 v 0.0017 0 c 1.140735,0.307805 2.283143,0.546052 3.4253843,0.714171 1.145421,0.168579 2.265823,0.253316 3.360119,0.253316 1.38063,0 2.746951,-0.155827 4.098714,-0.467406 l 0.0084,-0.0017 v -0.0017 c 1.394855,-0.343551 2.646459,-0.89074 3.742511,-1.644062 v -0.0017 c 1.138727,-0.764241 2.049198,-1.785263 2.716084,-3.038114 v -0.0017 c 0.708966,-1.307842 1.050869,-2.887776 1.050869,-4.71486 0,-1.429161 -0.211454,-2.671887 -0.658611,-3.721224 -0.439868,-1.03231 -1.080481,-1.915662 -1.907185,-2.62954 -0.812656,-0.728713 -1.789054,-1.347771 -2.923681,-1.861273 -1.089191,-0.505319 -2.310505,-0.96547 -3.664024,-1.382588 l -0.0084,-0.0033 c -0.846536,-0.27453 -1.614836,-0.508902 -2.302724,-0.702726 l -0.0084,-0.0017 c -0.63283,-0.185832 -1.167343,-0.370912 -1.603204,-0.550745 -0.418875,-0.199614 -0.721525,-0.405119 -0.900505,-0.58507 -0.144757,-0.1455852 -0.207513,-0.2904512 -0.207513,-0.5572802 0,-0.374628 0.07698,-0.488668 0.321896,-0.621024 0.329594,-0.163584 0.812731,-0.268018 1.461041,-0.268018 0.810639,0 1.638431,0.139736 2.488983,0.424907 l 0.0084,0.0017 0.01004,0.0033 c 0.909543,0.269047 1.720767,0.564652 2.431834,0.882507 v 0 0 c 0.852727,0.3752132 1.677925,0.8052842 2.477519,1.2878012 l 0.504976,0.303973 0.272946,-0.522966 3.700005,-7.1352132 -0.500114,-0.251684 c -0.662879,-0.333304 -1.405909,-0.67939 -2.227509,-1.03771 -0.838251,-0.393454 -1.743275,-0.743457 -2.712896,-1.050835 l -0.0084,-0.0017 c -0.949706,-0.336672 -1.940078,-0.60417999 -2.969442,-0.80078999 0,-3.43e-4 0,3.35e-4 -0.0084,0 -1.049028,-0.227762 -2.127174,-0.3432 -3.229335,-0.3432 z m 0,1.10802699 c 1.027691,0 2.02735,0.105764 2.998896,0.317051 l 0.0084,0.0017 0.0084,0.0017 c 0.984599,0.187347 1.927527,0.439969 2.828953,0.759932 l 0.01004,0.0033 0.0084,0.0033 c 0.935398,0.295664 1.801513,0.63017 2.59684,1.003442 l 0.0084,0.0033 0.0084,0.0033 c 0.622789,0.271448 1.152207,0.527099 1.676754,0.781177 L 20.456807,10.022527 C 19.776617,9.6355318 19.092243,9.2573648 18.376323,8.9422718 v -0.0017 c -0.761605,-0.340346 -1.615002,-0.646963 -2.559269,-0.926637 -0.948953,-0.316917 -1.894476,-0.480475 -2.828869,-0.480475 -0.76763,0 -1.426233,0.115027 -1.970954,0.388952 l -0.0084,0.0033 -0.0084,0.0033 c -0.570744,0.306132 -0.907032,0.934595 -0.907032,1.60159 0,0.5026742 0.18241,0.9893672 0.529492,1.3384662 0.311019,0.31275 0.717844,0.572551 1.220812,0.810597 l 0.01339,0.0067 0.01339,0.005 c 0.489329,0.20266 1.065846,0.40004 1.735577,0.596508 v 0 0.0017 c 0.674417,0.189925 1.433345,0.421528 2.274944,0.694566 v 0.0017 0 c 1.318878,0.406081 2.499526,0.851422 3.538178,1.333564 v 0.0017 0.0017 c 1.04953,0.475004 1.929116,1.036385 2.645872,1.680026 l 0.0084,0.0033 v 0.0033 c 0.70136,0.604633 1.237212,1.341161 1.616257,2.23078 0.372687,0.874449 0.57041,1.967406 0.57041,3.28651 0,1.690117 -0.314617,3.078245 -0.916822,4.188631 v 0.0017 0.0033 c -0.58932,1.108144 -1.369585,1.980326 -2.359873,2.6443 v 0.0017 0.0017 c -0.979076,0.673731 -2.102825,1.168356 -3.382962,1.483918 -7.53e-4,1.84e-4 -8.37e-4,0.0017 0,0.0017 -1.268757,0.29179 -2.547639,0.436355 -3.842168,0.436355 -1.037146,0 -2.104582,-0.07899 -3.199882,-0.240247 -1.0973083,-0.161508 -2.1941973,-0.390032 -3.2930113,-0.68639 v -0.0017 C 6.1939834,29.065507 5.1493071,28.714626 4.1323267,28.31108 l -0.00837,-0.0017 C 3.3016896,27.973939 2.5556473,27.581681 1.829436,27.173609 l 2.9515358,-6.042114 c 0.8146553,0.486869 1.6395185,0.957756 2.5102359,1.349905 0.90335,0.425895 1.911629,0.805928 3.0266753,1.14235 v 0 0.0017 c 1.169436,0.344254 2.358702,0.516423 3.559432,0.516423 0.920754,0 1.594502,-0.07665 2.111443,-0.423276 v -0.0033 l 0.0084,-0.0017 c 0.465648,-0.324239 0.769722,-0.847104 0.769722,-1.402201 0,-0.565389 -0.285749,-1.097659 -0.738679,-1.454498 -0.399881,-0.36175 -0.914898,-0.64662 -1.550908,-0.879235 -0.617518,-0.225838 -1.32666,-0.449266 -2.127843,-0.671681 l -0.0084,-0.0017 c -0.752903,-0.21645 -1.562203,-0.474059 -2.4268963,-0.773003 v -0.0017 C 8.6539317,18.098109 7.5762027,17.642476 6.6816386,17.16661 5.7953578,16.667927 5.0782674,16.123841 4.524342,15.542144 3.9741819,14.936943 3.5656827,14.26456 3.2904772,13.512384 3.0412944,12.757397 2.9113478,11.871794 2.9113478,10.850161 c 0,-1.5535352 0.2742015,-2.8964442 0.807292,-4.0480822 0.5687359,-1.168523 1.3219741,-2.130647 2.2684164,-2.902469 0.9571535,-0.780491 2.0396505,-1.364489 3.2619685,-1.756839 v -0.0017 0 C 10.50247,1.7208568 11.819925,1.5102398 13.212102,1.5102398 Z"
       style="color:#000000;font-style:normal;font-variant:normal;font-weight:900;font-stretch:normal;font-size:85.33333588px;line-height:1.25;font-family:Raleway;-inkscape-font-specification:'Raleway Heavy';font-variant-ligatures:normal;font-variant-position:normal;font-variant-caps:normal;font-variant-numeric:normal;font-variant-alternates:normal;font-feature-settings:normal;text-indent:0;text-align:start;text-decoration:none;text-decoration-line:none;text-decoration-style:solid;text-decoration-color:#000000;letter-spacing:3.53055573px;word-spacing:0px;text-transform:none;writing-mode:lr-tb;direction:ltr;text-orientation:mixed;dominant-baseline:auto;baseline-shift:baseline;text-anchor:start;white-space:normal;shape-padding:0;clip-rule:nonzero;display:inline;overflow:visible;visibility:visible;opacity:1;isolation:auto;mix-blend-mode:normal;color-interpolation:sRGB;color-interpolation-filters:linearRGB;solid-color:#000000;solid-opacity:1;vector-effect:none;fill:#4ac4f3;fill-opacity:1;fill-rule:nonzero;stroke:none;stroke-width:1.32291663;stroke-linecap:butt;stroke-linejoin:miter;stroke-miterlimit:4;stroke-dasharray:none;stroke-dashoffset:0;stroke-opacity:1;color-rendering:auto;image-rendering:auto;shape-rendering:auto;text-rendering:auto;enable-background:accumulate"
       inkscape:export-xdpi="96"
       inkscape:export-ydpi="96" />
    <path
       inkscape:connector-curvature="0"
       id="path1058"
       d="M 27.409245,0.40132781 V 8.6658208 h 8.574967 V 31.396864 h 9.264697 V 8.6658208 h 8.534134 V 8.1118028 0.40132781 Z M 28.51559,1.5093548 h 24.161024 v 6.048431 H 44.14248 V 30.288829 H 37.092239 V 7.5577858 H 28.51559 Z"
       style="color:#000000;font-style:normal;font-variant:normal;font-weight:900;font-stretch:normal;font-size:85.33333588px;line-height:1.25;font-family:Raleway;-inkscape-font-specification:'Raleway Heavy';font-variant-ligatures:normal;font-variant-position:normal;font-variant-caps:normal;font-variant-numeric:normal;font-variant-alternates:normal;font-feature-settings:normal;text-indent:0;text-align:start;text-decoration:none;text-decoration-line:none;text-decoration-style:solid;text-decoration-color:#000000;letter-spacing:3.53055573px;word-spacing:0px;text-transform:none;writing-mode:lr-tb;direction:ltr;text-orientation:mixed;dominant-baseline:auto;baseline-shift:baseline;text-anchor:start;white-space:normal;shape-padding:0;clip-rule:nonzero;display:inline;overflow:visible;visibility:visible;opacity:1;isolation:auto;mix-blend-mode:normal;color-interpolation:sRGB;color-interpolation-filters:linearRGB;solid-color:#000000;solid-opacity:1;vector-effect:none;fill:#4ab9f3;fill-opacity:1;fill-rule:nonzero;stroke:none;stroke-width:1.32291663;stroke-linecap:butt;stroke-linejoin:miter;stroke-miterlimit:4;stroke-dasharray:none;stroke-dashoffset:0;stroke-opacity:1;color-rendering:auto;image-rendering:auto;shape-rendering:auto;text-rendering:auto;enable-background:accumulate"
       inkscape:export-xdpi="96"
       inkscape:export-ydpi="96" />
    <path
       inkscape:connector-curvature="0"
       id="path1060"
       d="M 57.337537,0.40132781 V 31.396864 H 79.612621 V 23.134003 H 79.060285 66.602234 v -3.608465 h 10.79435 V 11.767661 H 66.602234 V 8.6658208 H 79.236755 V 0.40132781 Z m 1.108102,1.10802699 h 19.684687 v 6.048431 H 65.495805 v 5.3162782 h 10.792761 v 5.545071 H 65.495805 v 5.821263 h 13.010471 v 6.048431 H 58.445639 Z"
       style="color:#000000;font-style:normal;font-variant:normal;font-weight:900;font-stretch:normal;font-size:85.33333588px;line-height:1.25;font-family:Raleway;-inkscape-font-specification:'Raleway Heavy';font-variant-ligatures:normal;font-variant-position:normal;font-variant-caps:normal;font-variant-numeric:normal;font-variant-alternates:normal;font-feature-settings:normal;text-indent:0;text-align:start;text-decoration:none;text-decoration-line:none;text-decoration-style:solid;text-decoration-color:#000000;letter-spacing:3.53055573px;word-spacing:0px;text-transform:none;writing-mode:lr-tb;direction:ltr;text-orientation:mixed;dominant-baseline:auto;baseline-shift:baseline;text-anchor:start;white-space:normal;shape-padding:0;clip-rule:nonzero;display:inline;overflow:visible;visibility:visible;opacity:1;isolation:auto;mix-blend-mode:normal;color-interpolation:sRGB;color-interpolation-filters:linearRGB;solid-color:#000000;solid-opacity:1;vector-effect:none;fill:#4ab1f3;fill-opacity:1;fill-rule:nonzero;stroke:none;stroke-width:1.32291663;stroke-linecap:butt;stroke-linejoin:miter;stroke-miterlimit:4;stroke-dasharray:none;stroke-dashoffset:0;stroke-opacity:1;color-rendering:auto;image-rendering:auto;shape-rendering:auto;text-rendering:auto;enable-background:accumulate"
       inkscape:export-xdpi="96"
       inkscape:export-ydpi="96" />
    <path
       inkscape:connector-curvature="0"
       id="path1062"
       d="M 84.070966,0.40132781 V 31.396864 h 9.264613 V 17.726209 L 104.3146,31.396864 h 7.30354 V 0.40132781 h -9.26462 V 14.550827 L 91.253505,0.40132781 Z m 1.108018,1.10802699 h 5.535239 L 103.45987,17.753989 V 1.5093548 h 7.05025 V 30.288829 h -5.66435 L 92.229234,14.578607 v 1.573801 14.136421 h -7.05025 z"
       style="color:#000000;font-style:normal;font-variant:normal;font-weight:900;font-stretch:normal;font-size:85.33333588px;line-height:1.25;font-family:Raleway;-inkscape-font-specification:'Raleway Heavy';font-variant-ligatures:normal;font-variant-position:normal;font-variant-caps:normal;font-variant-numeric:normal;font-variant-alternates:normal;font-feature-settings:normal;text-indent:0;text-align:start;text-decoration:none;text-decoration-line:none;text-decoration-style:solid;text-decoration-color:#000000;letter-spacing:3.53055573px;word-spacing:0px;text-transform:none;writing-mode:lr-tb;direction:ltr;text-orientation:mixed;dominant-baseline:auto;baseline-shift:baseline;text-anchor:start;white-space:normal;shape-padding:0;clip-rule:nonzero;display:inline;overflow:visible;visibility:visible;opacity:1;isolation:auto;mix-blend-mode:normal;color-interpolation:sRGB;color-interpolation-filters:linearRGB;solid-color:#000000;solid-opacity:1;vector-effect:none;fill:#4aa8f3;fill-opacity:1;fill-rule:nonzero;stroke:none;stroke-width:1.32291663;stroke-linecap:butt;stroke-linejoin:miter;stroke-miterlimit:4;stroke-dasharray:none;stroke-dashoffset:0;stroke-opacity:1;color-rendering:auto;image-rendering:auto;shape-rendering:auto;text-rendering:auto;enable-background:accumulate"
       inkscape:export-xdpi="96"
       inkscape:export-ydpi="96" />
    <path
       inkscape:connector-curvature="0"
       id="path1064"
       d="m 126.2416,0.40132781 c -1.5043,0 -2.94626,0.230423 -4.3161,0.68965399 -1.34339,0.432162 -2.5535,1.082765 -3.61666,1.949684 -1.07439,0.876189 -1.93247,1.977028 -2.5658,3.279983 v 0.0033 0.005 c -0.61267,1.320501 -0.91189,2.833621 -0.91189,4.5203912 0,1.118854 0.14217,2.12602 0.43796,3.018492 v 0.0084 0.0084 c 0.32499,0.891419 0.81674,1.698418 1.4643,2.408915 v 0.0033 l 0.008,0.005 c 0.6468,0.68014 1.45744,1.288094 2.42522,1.83202 l 0.008,0.0033 0.008,0.0033 c 0.962,0.512231 2.0942,0.989594 3.39927,1.436525 0.88235,0.305052 1.71132,0.569614 2.4874,0.792615 v 0 0 c 0.78135,0.216801 1.4643,0.433811 2.04776,0.647173 0.55468,0.202902 0.95448,0.436664 1.20768,0.670049 l 0.0176,0.01632 0.0192,0.01473 c 0.24926,0.19287 0.31704,0.339969 0.31704,0.593236 0,0.211713 -0.0552,0.320239 -0.29253,0.487019 -0.14099,0.09314 -0.66513,0.236966 -1.49041,0.236966 -1.09295,0 -2.17118,-0.156312 -3.2408,-0.470669 l -0.008,-0.0017 c -1.06886,-0.322749 -2.02735,-0.685604 -2.87138,-1.083518 v -0.0017 l -0.008,-0.0017 c -1.01489,-0.456637 -1.98936,-0.979854 -2.92375,-1.570538 l -0.5213,-0.330121 -3.93856,8.06185 0.43796,0.259843 c 0.9,0.53745 1.86744,1.017775 2.90242,1.439796 v 0 0.0017 c 1.05722,0.419712 2.14198,0.782533 3.25385,1.090071 v 0.0017 0 c 1.14073,0.307805 2.28155,0.546052 3.42379,0.714171 1.14534,0.168579 2.26583,0.253316 3.36004,0.253316 1.38063,0 2.74854,-0.155835 4.10038,-0.467406 l 0.008,-0.0017 v -0.0017 c 1.39486,-0.343559 2.64646,-0.890741 3.74243,-1.644071 v -0.0017 c 1.13873,-0.764233 2.04927,-1.785255 2.71616,-3.038106 v -0.0017 c 0.70897,-1.307842 1.05087,-2.887784 1.05087,-4.714868 0,-1.429161 -0.21312,-2.671887 -0.66028,-3.721225 -0.44004,-1.032736 -1.07999,-1.917142 -1.90719,-2.631171 -0.81231,-0.728261 -1.7898,-1.346633 -2.92367,-1.8598 -1.0892,-0.505319 -2.31051,-0.965471 -3.66403,-1.382588 l -0.008,-0.0033 c -0.84712,-0.274712 -1.61441,-0.508842 -2.30264,-0.702733 l -0.008,-0.0017 c -0.63225,-0.185607 -1.16585,-0.369473 -1.60163,-0.549114 -0.42029,-0.200008 -0.72277,-0.406366 -0.90208,-0.586701 -0.14476,-0.1455852 -0.2076,-0.2904432 -0.2076,-0.5572812 0,-0.374628 0.0753,-0.488676 0.32039,-0.621024 0.3295,-0.163584 0.81423,-0.268018 1.46263,-0.268018 0.81064,0 1.63667,0.139737 2.4873,0.424908 l 0.01,0.0017 0.01,0.0033 c 0.90955,0.269047 1.72069,0.564653 2.43184,0.882507 v 0 c 0.85272,0.3752142 1.6796,0.8052842 2.47911,1.2878022 l 0.50506,0.303973 0.27127,-0.522966 3.70159,-7.1352132 -0.50004,-0.251685 c -0.66252,-0.332907 -1.40656,-0.679429 -2.22757,-1.037514 v -0.0017 c -0.83783,-0.393061 -1.74227,-0.742093 -2.71122,-1.049204 v -0.0017 c -0.95155,-0.337585 -1.94284,-0.60385399 -2.97438,-0.80079099 -4.5e-4,-1.17e-4 -8.4e-4,1.09e-4 0,0 -1.04995,-0.228222 -2.12768,-0.343199 -3.23093,-0.343199 z m 0,1.10802699 c 1.02761,0 2.02559,0.105764 2.99722,0.317051 l 0.008,0.0017 0.008,0.0017 c 0.9846,0.187347 1.92752,0.439969 2.82887,0.759932 l 0.008,0.0033 0.01,0.0033 c 0.9354,0.295664 1.79993,0.63017 2.59525,1.003442 l 0.008,0.0033 0.008,0.0033 c 0.62321,0.271624 1.15195,0.526949 1.67675,0.781177 l -2.92208,5.6349702 c -0.67944,-0.3865262 -1.36373,-0.7654712 -2.07881,-1.0802552 -0.76202,-0.340639 -1.61592,-0.648377 -2.56086,-0.92826 -0.94904,-0.316918 -1.89447,-0.480476 -2.82887,-0.480476 -0.76763,0 -1.42623,0.115027 -1.97095,0.388952 l -0.008,0.0033 -0.008,0.0033 c -0.57074,0.30614 -0.90702,0.934595 -0.90702,1.60159 0,0.5026752 0.18408,0.9893682 0.53116,1.3384662 0.31093,0.31275 0.71784,0.572551 1.22081,0.810597 l 0.0134,0.0067 0.0117,0.005 c 0.48933,0.202659 1.06744,0.400039 1.73717,0.596507 v 0 0.0017 c 0.6745,0.189924 1.43326,0.421527 2.27486,0.694565 l 0.008,0.0017 v 0 c 1.31896,0.406081 2.49793,0.851422 3.53658,1.333563 v 0.0017 0.0017 c 1.04953,0.475003 1.92912,1.036384 2.64588,1.680026 v 0.0033 l 0.008,0.0033 c 0.70136,0.604633 1.23563,1.341161 1.61467,2.23078 0.3726,0.87445 0.57033,1.967407 0.57033,3.286511 0,1.690117 -0.31462,3.078244 -0.91682,4.18863 v 0.0017 0.0033 c -0.58924,1.108086 -1.37126,1.980276 -2.36147,2.64425 v 0.0017 0.0017 c -0.97907,0.673731 -2.10282,1.168356 -3.38296,1.483918 -6.6e-4,1.84e-4 0,0.0017 0,0.0017 -1.26876,0.291798 -2.54923,0.436346 -3.84376,0.436346 -1.03714,0 -2.10291,-0.07899 -3.19829,-0.240238 -1.09731,-0.161508 -2.19579,-0.390032 -3.29468,-0.68639 v -0.0017 c -1.07121,-0.2964 -2.11421,-0.647281 -3.13127,-1.050827 l -0.008,-0.0017 c -0.82219,-0.335485 -1.56823,-0.727743 -2.29444,-1.135815 l 2.94986,-6.041888 c 0.81457,0.486919 1.63952,0.957714 2.51024,1.349905 6.6e-4,2.68e-4 8.4e-4,0.0017 0,0.0017 0.90285,0.425569 1.9123,0.804514 3.02659,1.140719 v 0 0.0017 c 1.16952,0.344254 2.35711,0.516423 3.55784,0.516423 0.92076,0 1.59618,-0.07665 2.11304,-0.423276 v -0.0033 -0.0017 c 0.46573,-0.324247 0.77139,-0.847113 0.77139,-1.402201 0,-0.565389 -0.28742,-1.097659 -0.74027,-1.454498 -0.39996,-0.36175 -0.9133,-0.64662 -1.54932,-0.879235 -0.61751,-0.225838 -1.32657,-0.449266 -2.12776,-0.671681 l -0.008,-0.0017 c -0.75291,-0.21645 -1.56221,-0.474059 -2.4269,-0.773003 v 0 -0.0017 c -1.26022,-0.431476 -2.33795,-0.887109 -3.2326,-1.362975 -0.88728,-0.499286 -1.60471,-1.045237 -2.15888,-1.627737 -1.7e-4,-2.09e-4 0,2.17e-4 0,0 -0.54891,-0.604474 -0.95582,-1.275468 -1.23061,-2.026489 -0.24918,-0.754995 -0.3808,-1.64059 -0.3808,-2.662223 0,-1.5535352 0.27588,-2.8964442 0.80897,-4.0480822 0.56873,-1.168532 1.3203,-2.130647 2.26674,-2.902469 0.95715,-0.780491 2.03973,-1.364489 3.26205,-1.756839 l 0.008,-0.0017 v 0 c 1.25336,-0.420214 2.57082,-0.630831 3.96308,-0.630831 z"
       style="color:#000000;font-style:normal;font-variant:normal;font-weight:900;font-stretch:normal;font-size:85.33333588px;line-height:1.25;font-family:Raleway;-inkscape-font-specification:'Raleway Heavy';font-variant-ligatures:normal;font-variant-position:normal;font-variant-caps:normal;font-variant-numeric:normal;font-variant-alternates:normal;font-feature-settings:normal;text-indent:0;text-align:start;text-decoration:none;text-decoration-line:none;text-decoration-style:solid;text-decoration-color:#000000;letter-spacing:3.53055573px;word-spacing:0px;text-transform:none;writing-mode:lr-tb;direction:ltr;text-orientation:mixed;dominant-baseline:auto;baseline-shift:baseline;text-anchor:start;white-space:normal;shape-padding:0;clip-rule:nonzero;display:inline;overflow:visible;visibility:visible;opacity:1;isolation:auto;mix-blend-mode:normal;color-interpolation:sRGB;color-interpolation-filters:linearRGB;solid-color:#000000;solid-opacity:1;vector-effect:none;fill:#4aa0f3;fill-opacity:1;fill-rule:nonzero;stroke:none;stroke-width:1.32291663;stroke-linecap:butt;stroke-linejoin:miter;stroke-miterlimit:4;stroke-dasharray:none;stroke-dashoffset:0;stroke-opacity:1;color-rendering:auto;image-rendering:auto;shape-rendering:auto;text-rendering:auto;enable-background:accumulate"
       inkscape:export-xdpi="96"
       inkscape:export-ydpi="96" />
    <path
       inkscape:connector-curvature="0"
       id="path1066"
       d="m 149.70804,0.40132781 -0.12911,0.372603 L 138.9905,31.396864 h 9.51472 l 1.75842,-5.852315 h 7.08782 l 1.79934,5.852315 h 9.46894 L 157.94639,0.40132781 Z m 0.7893,1.10802699 h 6.65799 l 9.91192,28.7794742 h -7.09929 l -1.79933,-5.850683 h -8.72868 l -1.75683,5.850683 h -7.13844 z m 3.34213,6.770785 -3.51701,11.7928802 h 6.87378 l -0.20107,-0.704372 z m -0.0243,3.9581902 1.91531,6.728287 h -3.92225 z"
       style="color:#000000;font-style:normal;font-variant:normal;font-weight:900;font-stretch:normal;font-size:85.33333588px;line-height:1.25;font-family:Raleway;-inkscape-font-specification:'Raleway Heavy';font-variant-ligatures:normal;font-variant-position:normal;font-variant-caps:normal;font-variant-numeric:normal;font-variant-alternates:normal;font-feature-settings:normal;text-indent:0;text-align:start;text-decoration:none;text-decoration-line:none;text-decoration-style:solid;text-decoration-color:#000000;letter-spacing:3.53055573px;word-spacing:0px;text-transform:none;writing-mode:lr-tb;direction:ltr;text-orientation:mixed;dominant-baseline:auto;baseline-shift:baseline;text-anchor:start;white-space:normal;shape-padding:0;clip-rule:nonzero;display:inline;overflow:visible;visibility:visible;opacity:1;isolation:auto;mix-blend-mode:normal;color-interpolation:sRGB;color-interpolation-filters:linearRGB;solid-color:#000000;solid-opacity:1;vector-effect:none;fill:#4a98f3;fill-opacity:1;fill-rule:nonzero;stroke:none;stroke-width:1.32291651;stroke-linecap:butt;stroke-linejoin:miter;stroke-miterlimit:4;stroke-dasharray:none;stroke-dashoffset:0;stroke-opacity:1;color-rendering:auto;image-rendering:auto;shape-rendering:auto;text-rendering:auto;enable-background:accumulate"
       inkscape:export-xdpi="96"
       inkscape:export-ydpi="96" />
    <path
       inkscape:connector-curvature="0"
       id="path1068"
       d="M 171.53204,0.40132781 V 31.396864 h 0.55233 22.18689 V 23.134003 H 180.79832 V 0.40132781 Z m 1.10642,1.10802699 h 7.05184 V 24.240398 h 13.47453 v 6.048431 h -20.52637 z"
       style="color:#000000;font-style:normal;font-variant:normal;font-weight:900;font-stretch:normal;font-size:85.33333588px;line-height:1.25;font-family:Raleway;-inkscape-font-specification:'Raleway Heavy';font-variant-ligatures:normal;font-variant-position:normal;font-variant-caps:normal;font-variant-numeric:normal;font-variant-alternates:normal;font-feature-settings:normal;text-indent:0;text-align:start;text-decoration:none;text-decoration-line:none;text-decoration-style:solid;text-decoration-color:#000000;letter-spacing:3.53055573px;word-spacing:0px;text-transform:none;writing-mode:lr-tb;direction:ltr;text-orientation:mixed;dominant-baseline:auto;baseline-shift:baseline;text-anchor:start;white-space:normal;shape-padding:0;clip-rule:nonzero;display:inline;overflow:visible;visibility:visible;opacity:1;isolation:auto;mix-blend-mode:normal;color-interpolation:sRGB;color-interpolation-filters:linearRGB;solid-color:#000000;solid-opacity:1;vector-effect:none;fill:#4a91f3;fill-opacity:1;fill-rule:nonzero;stroke:none;stroke-width:1.32291651;stroke-linecap:butt;stroke-linejoin:miter;stroke-miterlimit:4;stroke-dasharray:none;stroke-dashoffset:0;stroke-opacity:1;color-rendering:auto;image-rendering:auto;shape-rendering:auto;text-rendering:auto;enable-background:accumulate"
       inkscape:export-xdpi="96"
       inkscape:export-ydpi="96" />
  </g>
</svg>
